<?xml version="1.0" encoding="utf-8"?>
<!-- Generator: Adobe Illustrator 23.0.1, SVG Export Plug-In . SVG Version: 6.00 Build 0)  -->
<svg version="1.1" id="Layer_1" xmlns="http://www.w3.org/2000/svg" xmlns:xlink="http://www.w3.org/1999/xlink" x="0px" y="0px"
	 viewBox="0 0 471.1 126.2" style="enable-background:new 0 0 471.1 126.2;" xml:space="preserve">
<style type="text/css">
	.st0{fill:#ED3224;}
</style>
<g>
	<g>
		<path class="st0" d="M47.1,63.7c-0.2,0.2-0.2,0.5,0,0.8l48.2,57c0.2,0.2,0.1,0.4-0.2,0.4H70.4c-0.3,0-0.6-0.2-0.8-0.4L34,79.3
			c-0.2-0.2-0.5-0.2-0.7,0L23,90.9c-0.2,0.2-0.3,0.6-0.3,0.9v29.6c0,0.3-0.2,0.5-0.5,0.5H3.6c-0.3,0-0.5-0.2-0.5-0.5V4.8
			c0-0.3,0.2-0.5,0.5-0.5h18.6c0.3,0,0.5,0.2,0.5,0.5v56.6c0,0.3,0.2,0.3,0.3,0.1L73.9,4.7c0.2-0.2,0.6-0.4,0.8-0.4h25.2
			c0.3,0,0.3,0.2,0.2,0.4L47.1,63.7z"/>
	</g>
</g>
<g>
	<g>
		<path class="st0" d="M254.7,73.3c-0.1-0.2-0.4-0.5-0.7-0.5h-15c-0.3,0-0.5,0.2-0.5,0.5v48c0,0.3-0.2,0.5-0.5,0.5h-18.6
			c-0.3,0-0.5-0.2-0.5-0.5V4.8c0-0.3,0.2-0.5,0.5-0.5h38.1c0.3,0,0.7,0,1,0c0,0,38.8,0,38.8,34.2c0,19-22.2,31-22.2,31
			c-0.2,0.1-0.3,0.4-0.2,0.7l23.6,51.1c0.1,0.2,0,0.5-0.3,0.5h-20.7c-0.3,0-0.6-0.2-0.7-0.5L254.7,73.3z M238.5,52.9
			c0,0.3,0.2,0.5,0.5,0.5h18.5c0.3,0,0.7,0,1,0c0,0,19.1,0,19.1-14.8c0-14.6-19.1-14.6-19.1-14.6c-0.3,0-0.7,0-1,0H239
			c-0.3,0-0.5,0.2-0.5,0.5V52.9z"/>
	</g>
</g>
<g>
	<g>
		<path class="st0" d="M371,107.5c-0.1-0.3-0.4-0.5-0.7-0.5h-38.8c-0.3,0-0.6,0.2-0.7,0.5l-5.5,13.8c-0.1,0.3-0.4,0.5-0.7,0.5h-20.2
			c-0.3,0-0.4-0.2-0.3-0.5L350.6,4.8c0.1-0.3,0.3-0.3,0.4,0l46.6,116.6c0.1,0.3,0,0.5-0.3,0.5h-20.2c-0.3,0-0.6-0.2-0.7-0.5
			L371,107.5z M362.6,87.6c0.3,0,0.4-0.2,0.3-0.5L351,57.7c-0.1-0.3-0.3-0.3-0.4,0l-11.7,29.5c-0.1,0.3,0,0.5,0.3,0.5L362.6,87.6
			L362.6,87.6z"/>
	</g>
</g>
<g>
	<g>
		<path class="st0" d="M467.5,102.2c0.3,0,0.5,0.2,0.5,0.5v18.6c0,0.3-0.2,0.5-0.5,0.5h-62.1c-0.3,0-0.5-0.2-0.5-0.5V4.8
			c0-0.3,0.2-0.5,0.5-0.5H424c0.3,0,0.5,0.2,0.5,0.5v96.9c0,0.3,0.2,0.5,0.5,0.5C425,102.2,467.5,102.2,467.5,102.2z"/>
	</g>
</g>
<g>
	<path class="st0" d="M151.9,54.8c0,2.2,0,4.3,0,6.4h10C159.2,58.4,155.8,56.4,151.9,54.8z"/>
	<path class="st0" d="M128.7,79.3c2.4-3.9,6.1-5.9,10.5-6.6c2-0.4,4-0.2,6,0.3c0-0.5,0-0.9,0-1.3c0-2.5,0-5,0-7.5H88.9
		c0.1,6.2,1.1,12.1,3,17.6h35.8C127.9,80.9,128.2,80.1,128.7,79.3z"/>
	<path class="st0" d="M145.2,34.5c0-0.4,0-0.9,0-1.3c0.1-1.5,1.2-2.5,2.6-2.5s2.6,1,2.8,2.5c0.1,0.7,0.1,1.4,0.1,2.1
		c0,1.7,0.6,3.1,1.7,4.3c0.4,0.5,1,0.9,1.5,1.4h47.9c-2.7-6.6-6.5-12.5-11.3-17.6h-86c-4.7,5.1-8.6,11.1-11.3,17.6h52
		C145.2,38.7,145.2,36.6,145.2,34.5z"/>
	<path class="st0" d="M148.1,88.7c-4.4,3.8-9.5,5.1-15.1,3.1c-3.6-1.3-5.6-4.1-5.7-7.4H92.9c2.6,6.5,6.3,12.5,10.8,17.6h87.5
		c4.6-5.1,8.3-11.1,10.9-17.6h-50.9C150.5,86,149.5,87.5,148.1,88.7z"/>
	<path class="st0" d="M147.4,121.7c16.1,0,30.7-6.4,41.3-16.8h-82.4C116.8,115.3,131.3,121.7,147.4,121.7z"/>
	<path class="st0" d="M145.2,43.6h-53c-1.9,5.6-3.1,11.5-3.3,17.6h56.3C145.2,55.4,145.2,49.5,145.2,43.6z"/>
	<path class="st0" d="M147.4,4.3c-15.6,0-29.7,6.2-40.2,16.1h80.6C177.2,10.5,163.1,4.3,147.4,4.3z"/>
	<path class="st0" d="M157.3,43.6c0.5,0.4,1,0.7,1.5,1.1c2.3,1.6,4.5,3.1,6.3,5.3c2.8,3.3,4.4,7.1,4.8,11.3H206
		c-0.2-6.2-1.3-12.1-3.3-17.6L157.3,43.6L157.3,43.6z"/>
	<path class="st0" d="M169.1,68.1c-0.2,0.6-0.6,1.2-1.3,1.2c-0.8,0-1.2-0.5-1.5-1.2c-0.6-1.4-1.3-2.8-2.1-4.1H152v0.1
		c0,5.3-0.1,10.6,0,15.9c0,0.6-0.1,1.1-0.1,1.7h51.3c1.9-5.6,2.9-11.5,3-17.6H170C169.9,65.4,169.5,66.8,169.1,68.1z"/>
</g>
</svg>
